# 3ds Max Wavefront OBJ Exporter v0.99 - (c)2007 guruware
# File Created: 24.05.2021 22:25:33

mtllib bear_model.mtl

#
# object bear
#

v  -1.2905 0.7105 -0.1000
v  -1.1296 0.7105 -0.1000
v  -1.1296 0.7105 0.1000
v  -1.2905 0.7105 0.1000
v  -1.1296 1.7105 -0.1000
v  -1.2905 1.7105 -0.1000
v  -1.2905 1.7105 0.1000
v  -1.1296 1.7105 0.1000
v  -1.1296 0.7105 0.5000
v  -1.1296 1.5217 0.5000
v  -1.2905 1.5217 0.5000
v  -1.2905 0.7105 0.5000
v  -0.4542 0.7105 -0.5000
v  -0.4542 1.5217 -0.5000
v  0.8270 1.5217 -0.5000
v  0.8270 0.7105 -0.5000
v  -0.8899 0.7105 0.1000
v  -0.8899 0.7105 -0.1000
v  -0.8899 1.7105 -0.1000
v  -0.8899 1.7105 0.1000
v  -0.8899 0.7105 0.5000
v  -0.8899 1.5217 0.5000
v  -1.2905 0.7105 -0.5000
v  -1.2905 1.5217 -0.5000
v  -1.1296 1.5217 -0.5000
v  -1.1296 0.7105 -0.5000
v  -0.8899 1.5217 -0.5000
v  -0.8899 0.7105 -0.5000
v  0.8270 0.7105 0.1000
v  -0.4542 0.7105 0.1000
v  -0.4542 0.7105 -0.1000
v  0.8270 0.7105 -0.1000
v  0.8270 1.7105 -0.1000
v  -0.4542 1.7105 -0.1000
v  -0.4542 1.7105 0.1000
v  0.8270 1.7105 0.1000
v  -0.4542 0.7105 0.5000
v  -0.4542 1.5217 0.5000
v  -1.1296 1.7105 -0.5000
v  -1.2905 1.7105 -0.5000
v  -1.2905 1.7105 0.5000
v  -1.1296 1.7105 0.5000
v  1.3020 1.7105 -0.5000
v  0.8270 1.7105 -0.5000
v  1.3020 1.7105 -0.1000
v  0.8270 0.7105 0.5000
v  -0.4542 1.7105 -0.5000
v  -0.8899 1.7105 0.5000
v  -0.4542 1.7105 0.5000
v  -0.8899 2.0379 0.5000
v  -1.1296 2.0379 0.5000
v  -1.1296 2.0379 0.1000
v  -0.8899 1.7105 -0.5000
v  -1.1296 2.0379 -0.5000
v  -0.8899 2.0379 -0.5000
v  -0.8899 2.0379 0.1000
v  -1.1296 2.0379 -0.1000
v  -0.8899 2.0379 -0.1000
v  1.3020 1.5217 -0.5000
v  1.3020 1.5217 -0.1000
v  1.3020 0.7105 -0.1000
v  1.3020 0.7105 -0.5000
v  1.3020 1.7105 0.5000
v  1.3020 1.5217 0.5000
v  1.3020 1.5217 0.1000
v  1.3020 1.7105 0.1000
v  0.8270 1.7105 0.5000
v  0.8270 1.5217 0.5000
v  1.3020 0.7105 0.5000
v  1.3020 0.7105 0.1000
v  1.5417 1.7105 0.1000
v  1.5417 1.7105 -0.1000
v  1.5417 1.5217 0.1000
v  1.5417 1.5217 -0.1000
v  -0.4542 0.1617 -0.5000
v  -0.8899 0.1617 -0.5000
v  -0.8899 0.1617 -0.1000
v  -0.8899 0.1617 0.1000
v  -0.8899 0.1617 0.5000
v  -0.4542 0.1617 -0.1000
v  -0.4542 0.1617 0.5000
v  -0.4542 0.1617 0.1000
v  -0.4542 0.0008 -0.5000
v  -0.8899 0.0008 -0.5000
v  -0.8899 0.0008 -0.1000
v  -0.4542 0.0008 -0.1000
v  -0.8899 0.0008 0.5000
v  -0.4542 0.0008 0.5000
v  -0.4542 0.0008 0.1000
v  -0.8899 0.0008 0.1000
v  -1.0005 0.1617 -0.5000
v  -1.0005 0.1617 -0.1000
v  -1.0005 0.1617 0.1000
v  -1.0005 0.1617 0.5000
v  -1.0005 0.0008 0.5000
v  -1.0005 0.0008 -0.5000
v  -1.0005 0.0008 -0.1000
v  -1.0005 0.0008 0.1000
v  1.3020 0.1207 -0.1000
v  1.3020 0.1207 -0.5000
v  1.3020 0.1207 0.5000
v  1.3020 0.1207 0.1000
v  0.8270 0.1207 0.1000
v  0.8270 0.1207 0.5000
v  0.8270 0.1207 -0.5000
v  0.8270 0.1207 -0.1000
v  0.8270 -0.0181 -0.1000
v  0.8270 -0.0181 -0.5000
v  1.3020 -0.0181 -0.5000
v  1.3020 -0.0181 -0.1000
v  0.8270 -0.0181 0.5000
v  0.8270 -0.0181 0.1000
v  1.3020 -0.0181 0.1000
v  1.3020 -0.0181 0.5000
v  0.7383 -0.0181 -0.1000
v  0.7383 -0.0181 -0.5000
v  0.7383 -0.0181 0.5000
v  0.7383 -0.0181 0.1000
v  0.7383 0.1207 0.5000
v  0.7383 0.1207 -0.5000
v  0.7383 0.1207 -0.1000
v  0.7383 0.1207 0.1000
v  -1.4794 0.7354 0.3846
v  -1.4794 0.7354 0.0769
v  -1.4794 1.5047 -0.3846
v  -1.4794 1.5047 -0.0769
v  -1.4794 1.5047 0.3846
v  -1.4794 1.3594 0.3846
v  -1.4794 0.7354 -0.3846
v  -1.4794 1.3594 -0.3846
v  -1.4794 0.7354 -0.0769
v  -1.4794 1.5047 0.0769
v  -1.8210 0.8120 0.3134
v  -1.8210 0.8120 0.0627
v  -1.8210 1.3109 -0.3134
v  -1.8210 1.3109 -0.1052
v  -1.8210 1.3109 0.3134
v  -1.8210 1.2167 0.3134
v  -1.8210 0.8120 -0.3134
v  -1.8210 1.2167 -0.3134
v  -1.8210 0.8120 -0.0627
v  -1.8210 1.3109 0.1052
v  -1.8210 1.1862 0.0627
v  -1.8210 1.1860 -0.0627
v  -1.8742 1.2952 -0.0786
v  -1.8742 1.2952 0.0786
v  -1.8742 1.2018 -0.0468
v  -1.8742 1.2019 0.0468
# 148 vertices

vn 0.0000 -1.0000 -0.0000
vn 0.0000 1.0000 -0.0000
vn 0.0000 0.0000 1.0000
vn 0.0000 0.0000 -1.0000
vn 0.0000 -0.0000 -1.0000
vn -1.0000 0.0000 -0.0000
vn 1.0000 0.0000 -0.0000
vn 0.0000 -0.0000 1.0000
vn -0.0000 -0.0000 1.0000
vn -0.0000 0.0000 1.0000
vn -0.1306 -0.9914 -0.0000
vn -0.7367 0.6763 -0.0000
vn -0.5211 0.0000 0.8535
vn -0.5211 0.0000 -0.8535
vn -0.5211 -0.0000 -0.8535
vn -0.2188 -0.9758 -0.0000
vn -0.4933 0.8699 -0.0000
vn -0.2041 0.0000 0.9789
vn -0.2041 0.0000 -0.9789
vn -0.2041 -0.0000 -0.9789
vn -0.2844 0.9587 -0.0000
vn -0.3534 -0.3015 -0.8855
vn -0.3533 -0.3018 0.8855
vn -0.2844 -0.9587 0.0010
# 24 vertex normals

vt 1.0000 0.6000 0.0000
vt 0.5000 0.6000 0.0000
vt 0.5000 0.4000 0.0000
vt 1.0000 0.4000 0.0000
vt 0.0000 0.6000 0.0000
vt 0.0000 0.4000 0.0000
vt 0.5000 0.0000 0.0000
vt 0.5000 0.5000 0.0000
vt 0.0000 0.5000 0.0000
vt 0.0000 0.0000 0.0000
vt 0.1250 0.0000 0.0000
vt 0.1250 0.5000 0.0000
vt 0.2500 0.4000 0.0000
vt 0.2500 0.6000 0.0000
vt 0.7500 0.6000 0.0000
vt 0.7500 0.4000 0.0000
vt 0.7500 0.0000 0.0000
vt 0.7500 0.5000 0.0000
vt 1.0000 0.0000 0.0000
vt 1.0000 0.5000 0.0000
vt 0.2500 0.5000 0.0000
vt 0.2500 0.0000 0.0000
vt 0.1250 0.4000 0.0000
vt 0.1250 0.6000 0.0000
vt 0.8750 0.6000 0.0000
vt 0.8750 0.4000 0.0000
vt 0.8750 0.0000 0.0000
vt 0.8750 0.5000 0.0000
vt 1.0000 1.0000 0.0000
vt 0.5000 1.0000 0.0000
vt 0.0000 1.0000 0.0000
vt 0.2500 1.0000 0.0000
vt 0.8750 1.0000 0.0000
vt 0.7500 1.0000 0.0000
vt 0.1250 1.0000 0.0000
vt 0.1876 0.4000 0.0000
vt 0.1879 0.6000 0.0000
# 37 texture coords

o bear
g bear
usemtl wire_115115115
s 2
f 1/1/1 2/2/1 3/3/1 
f 3/3/1 4/4/1 1/1/1 
s 4
f 5/2/2 6/5/2 7/6/2 
f 7/6/2 8/3/2 5/2/2 
s 8
f 9/7/3 10/8/3 11/9/3 
f 11/9/3 12/10/3 9/7/3 
s 32
f 13/11/4 14/12/5 15/9/5 
f 15/9/5 16/10/4 13/11/4 
s 2
f 17/13/1 3/3/1 2/2/1 
f 2/2/1 18/14/1 17/13/1 
s 4
f 19/15/2 5/2/2 8/3/2 
f 8/3/2 20/16/2 19/15/2 
s 8
f 21/17/3 22/18/3 10/8/3 
f 10/8/3 9/7/3 21/17/3 
s 32
f 23/19/4 24/20/5 25/8/5 
f 25/8/5 26/7/4 23/19/4 
f 26/7/4 25/8/5 27/21/5 
f 27/21/5 28/22/4 26/7/4 
s 2
f 29/6/1 30/23/1 31/24/1 
f 31/24/1 32/5/1 29/6/1 
s 4
f 33/1/2 34/25/2 35/26/2 
f 35/26/2 36/4/2 33/1/2 
s 8
f 37/27/3 38/28/3 22/18/3 
f 22/18/3 21/17/3 37/27/3 
s 2
f 23/29/1 26/30/1 2/2/1 
f 2/2/1 1/1/1 23/29/1 
f 9/7/1 12/19/1 4/4/1 
f 4/4/1 3/3/1 9/7/1 
s 4
f 39/30/2 40/31/2 6/5/2 
f 6/5/2 5/2/2 39/30/2 
f 41/10/2 42/7/2 8/3/2 
f 8/3/2 7/6/2 41/10/2 
s off
f 43/29/2 44/29/2 33/1/2 
f 33/1/2 45/1/2 43/29/2 
s 2
f 21/22/1 9/7/1 3/3/1 
f 3/3/1 17/13/1 21/22/1 
f 26/30/1 28/32/1 18/14/1 
f 18/14/1 2/2/1 26/30/1 
f 29/6/1 46/10/1 37/11/1 
f 37/11/1 30/23/1 29/6/1 
s 4
f 33/1/2 44/29/2 47/33/2 
f 47/33/2 34/25/2 33/1/2 
f 48/17/2 49/27/2 35/26/2 
f 35/26/2 20/16/2 48/17/2 
s off
f 42/30/3 48/34/3 50/34/3 
f 50/34/3 51/30/3 42/30/3 
f 8/3/6 42/7/6 51/7/6 
f 51/7/6 52/3/6 8/3/6 
f 53/32/4 39/30/4 54/30/4 
f 54/30/4 55/32/4 53/32/4 
f 48/17/7 20/16/7 56/16/7 
f 56/16/7 50/17/7 48/17/7 
f 39/30/6 5/2/6 57/2/6 
f 57/2/6 54/30/6 39/30/6 
f 19/15/7 53/34/7 55/34/7 
f 55/34/7 58/15/7 19/15/7 
f 5/2/3 19/15/3 58/15/3 
f 58/15/3 57/2/3 5/2/3 
f 20/16/4 8/3/4 52/3/4 
f 52/3/4 56/16/4 20/16/4 
f 56/16/2 52/3/2 51/7/2 
f 51/7/2 50/34/2 56/16/2 
f 57/2/2 58/15/2 55/34/2 
f 55/34/2 54/30/2 57/2/2 
f 59/31/7 60/2/7 61/5/7 
f 61/5/7 62/31/7 59/31/7 
f 63/19/7 64/19/7 65/3/7 
f 65/3/7 66/4/7 63/19/7 
s 8
f 42/30/3 41/31/3 11/9/3 
f 11/9/3 10/8/3 42/30/3 
s 32
f 53/32/5 47/35/5 14/12/5 
f 14/12/5 27/21/5 53/32/5 
s 8
f 48/34/3 42/30/3 10/8/3 
f 10/8/3 22/18/3 48/34/3 
s 32
f 40/29/5 39/30/5 25/8/5 
f 25/8/5 24/20/5 40/29/5 
f 39/30/5 53/32/5 27/21/5 
f 27/21/5 25/8/5 39/30/5 
s 8
f 67/29/3 49/33/3 38/28/3 
f 38/28/3 68/20/3 67/29/3 
s off
f 43/31/7 45/1/7 60/2/7 
f 60/2/7 59/31/7 43/31/7 
f 69/19/7 70/6/7 65/3/7 
f 65/3/7 64/19/7 69/19/7 
f 70/6/7 61/5/7 60/2/7 
f 60/2/7 65/3/7 70/6/7 
f 45/1/2 66/4/2 71/4/2 
f 71/4/2 72/1/2 45/1/2 
f 66/4/3 65/3/3 73/3/3 
f 73/3/3 71/4/3 66/4/3 
f 60/2/5 45/1/5 72/1/5 
f 72/1/5 74/2/5 60/2/5 
f 65/3/1 60/2/1 74/2/1 
f 74/2/1 73/3/1 65/3/1 
f 73/3/7 74/2/7 72/1/7 
f 72/1/7 71/4/7 73/3/7 
s 32
f 28/22/4 27/21/5 14/12/5 
f 14/12/5 13/11/4 28/22/4 
s 2
f 17/13/1 18/14/1 31/24/1 
f 31/24/1 30/23/1 17/13/1 
s 4
f 19/15/2 20/16/2 35/26/2 
f 35/26/2 34/25/2 19/15/2 
s 8
f 37/27/3 46/19/3 68/20/3 
f 68/20/3 38/28/3 37/27/3 
s 2
f 16/31/1 32/5/1 31/24/1 
f 31/24/1 13/35/1 16/31/1 
s 4
f 53/34/2 19/15/2 34/25/2 
f 34/25/2 47/33/2 53/34/2 
f 67/19/2 36/4/2 35/26/2 
f 35/26/2 49/27/2 67/19/2 
s 32
f 47/35/5 44/31/5 15/9/5 
f 15/9/5 14/12/5 47/35/5 
s 8
f 48/34/3 22/18/3 38/28/3 
f 38/28/3 49/33/3 48/34/3 
s off
f 28/22/4 13/11/4 75/11/4 
f 75/11/4 76/22/4 28/22/4 
f 18/14/6 28/32/6 76/32/6 
f 76/32/6 77/14/6 18/14/6 
f 21/22/6 17/13/6 78/13/6 
f 78/13/6 79/22/6 21/22/6 
f 31/24/3 18/14/3 77/14/3 
f 77/14/3 80/24/3 31/24/3 
f 37/27/3 21/17/3 79/17/3 
f 79/17/8 81/27/8 37/27/8 
f 17/13/4 30/23/4 82/23/4 
f 82/23/4 78/13/4 17/13/4 
f 30/23/7 37/11/7 81/11/7 
f 81/11/7 82/23/7 30/23/7 
f 13/35/7 31/24/7 80/24/7 
f 80/24/7 75/35/7 13/35/7 
f 76/22/4 75/11/4 83/11/4 
f 83/11/4 84/22/4 76/22/4 
f 80/24/3 77/14/3 85/14/3 
f 85/14/3 86/24/3 80/24/3 
f 81/27/3 79/17/3 87/17/3 
f 87/17/3 88/27/3 81/27/3 
f 78/13/4 82/23/4 89/23/4 
f 89/23/4 90/13/4 78/13/4 
f 82/23/7 81/11/7 88/11/7 
f 88/11/7 89/23/7 82/23/7 
f 75/35/7 80/24/7 86/24/7 
f 86/24/7 83/35/7 75/35/7 
f 86/24/1 85/14/1 84/32/1 
f 84/32/1 83/11/1 86/24/1 
f 89/23/1 88/11/1 87/17/1 
f 87/17/1 90/13/1 89/23/1 
f 77/14/2 76/32/2 91/32/2 
f 91/32/2 92/14/2 77/14/2 
f 79/22/2 78/13/2 93/13/2 
f 93/13/2 94/22/2 79/22/2 
f 87/17/3 79/17/3 94/17/3 
f 94/17/3 95/17/3 87/17/3 
f 76/22/4 84/22/4 96/22/4 
f 96/22/4 91/22/4 76/22/4 
f 85/14/3 77/14/3 92/14/3 
f 92/14/3 97/14/3 85/14/3 
f 78/13/4 90/13/4 98/13/4 
f 98/13/4 93/13/4 78/13/4 
f 84/32/1 85/14/1 97/14/1 
f 97/14/1 96/32/1 84/32/1 
f 90/13/1 87/17/1 95/17/1 
f 95/17/1 98/13/1 90/13/1 
f 96/22/6 97/14/6 92/14/6 
f 92/14/6 91/32/6 96/22/6 
f 98/13/6 95/17/6 94/17/6 
f 94/17/6 93/13/6 98/13/6 
f 61/5/1 70/6/1 29/6/1 
f 29/6/1 32/5/1 61/5/1 
f 66/4/2 45/1/2 33/1/2 
f 33/1/2 36/4/2 66/4/2 
f 64/20/3 63/29/3 67/29/3 
f 67/29/3 68/20/3 64/20/3 
f 59/9/4 62/10/4 16/10/4 
f 16/10/4 15/9/4 59/9/4 
f 63/19/2 66/4/2 36/4/2 
f 36/4/2 67/19/2 63/19/2 
f 69/19/3 64/20/3 68/20/3 
f 68/20/3 46/19/3 69/19/3 
f 43/31/5 59/9/5 15/9/5 
f 15/9/5 44/31/5 43/31/5 
f 61/5/7 99/5/7 100/31/7 
f 100/31/7 62/31/7 61/5/7 
f 69/19/7 101/19/7 102/6/7 
f 102/6/7 70/6/7 69/19/7 
f 70/6/4 102/6/4 103/6/4 
f 103/6/4 29/6/4 70/6/4 
f 46/19/9 104/19/9 101/19/9 
f 101/19/3 69/19/3 46/19/3 
f 62/10/4 100/10/4 105/10/4 
f 105/10/4 16/10/4 62/10/4 
f 32/5/3 106/5/3 99/5/3 
f 99/5/3 61/5/3 32/5/3 
f 16/31/6 105/31/6 106/5/6 
f 106/5/6 32/5/6 16/31/6 
f 29/6/6 103/6/6 104/10/6 
f 104/10/6 46/10/6 29/6/6 
f 107/5/1 108/31/1 109/10/1 
f 109/10/1 110/5/1 107/5/1 
f 111/19/1 112/6/1 113/6/1 
f 113/6/1 114/19/1 111/19/1 
f 110/5/7 109/31/7 100/31/7 
f 100/31/7 99/5/7 110/5/7 
f 114/19/7 113/6/7 102/6/7 
f 102/6/7 101/19/7 114/19/7 
f 113/6/4 112/6/4 103/6/4 
f 103/6/4 102/6/4 113/6/4 
f 111/19/8 114/19/8 101/19/8 
f 101/19/10 104/19/10 111/19/10 
f 109/10/4 108/10/4 105/10/4 
f 105/10/4 100/10/4 109/10/4 
f 107/5/3 110/5/3 99/5/3 
f 99/5/3 106/5/3 107/5/3 
f 108/31/1 107/5/1 115/5/1 
f 115/5/1 116/31/1 108/31/1 
f 112/6/1 111/19/1 117/19/1 
f 117/19/1 118/6/1 112/6/1 
f 111/19/3 104/19/3 119/19/3 
f 119/19/3 117/19/3 111/19/3 
f 105/10/4 108/10/4 116/10/4 
f 116/10/4 120/10/4 105/10/4 
f 107/5/3 106/5/3 121/5/3 
f 121/5/3 115/5/3 107/5/3 
f 103/6/4 112/6/4 118/6/4 
f 118/6/4 122/6/4 103/6/4 
f 106/5/2 105/31/2 120/31/2 
f 120/31/2 121/5/2 106/5/2 
f 104/10/2 103/6/2 122/6/2 
f 122/6/2 119/10/2 104/10/2 
f 121/5/6 120/31/6 116/10/6 
f 116/10/6 115/5/6 121/5/6 
f 119/19/6 122/6/6 118/6/6 
f 118/6/6 117/19/6 119/19/6 
f 4/4/11 12/19/11 123/19/11 
f 123/19/11 124/4/11 4/4/11 
f 6/5/12 40/31/12 125/31/12 
f 125/31/12 126/5/12 6/5/12 
f 11/9/13 41/31/13 127/31/13 
f 127/31/13 128/9/13 11/9/13 
f 24/20/14 23/19/14 129/19/14 
f 129/19/14 130/20/14 24/20/14 
f 1/1/11 4/4/11 124/4/11 
f 124/4/11 131/1/11 1/1/11 
f 23/29/11 1/1/11 131/1/11 
f 131/1/11 129/29/11 23/29/11 
f 7/6/12 6/5/12 126/5/12 
f 126/5/12 132/6/12 7/6/12 
f 41/10/12 7/6/12 132/6/12 
f 132/6/12 127/10/12 41/10/12 
f 12/10/13 11/9/13 128/9/13 
f 128/9/13 123/10/13 12/10/13 
f 40/29/15 24/20/15 130/20/15 
f 130/20/15 125/29/15 40/29/15 
f 124/4/16 123/19/16 133/19/16 
f 133/19/16 134/4/16 124/4/16 
f 126/5/17 125/31/17 135/31/17 
f 135/31/17 136/5/17 126/5/17 
f 128/9/18 127/31/18 137/31/18 
f 137/31/18 138/9/18 128/9/18 
f 130/20/19 129/19/19 139/19/19 
f 139/19/19 140/20/19 130/20/19 
f 131/1/16 124/4/16 134/4/16 
f 134/4/16 141/1/16 131/1/16 
f 129/29/16 131/1/16 141/1/16 
f 141/1/16 139/29/16 129/29/16 
f 132/6/17 126/5/17 136/5/17 
f 136/5/17 142/6/17 132/6/17 
f 127/10/17 132/6/17 142/6/17 
f 142/6/17 137/10/17 127/10/17 
f 123/10/18 128/9/18 138/9/18 
f 138/9/18 133/10/18 123/10/18 
f 125/29/20 130/20/20 140/20/20 
f 140/20/20 135/29/20 125/29/20 
f 137/31/6 142/6/6 143/36/6 
f 143/36/6 138/9/6 137/31/6 
f 136/5/6 135/31/6 140/20/6 
f 140/20/6 144/37/6 136/5/6 
f 140/20/6 139/19/6 141/1/6 
f 141/1/6 144/37/6 140/20/6 
f 141/1/6 134/4/6 143/36/6 
f 143/36/6 144/37/6 141/1/6 
f 134/4/6 133/19/6 138/9/6 
f 138/9/6 143/36/6 134/4/6 
f 142/6/21 136/5/21 145/5/21 
f 145/5/21 146/6/21 142/6/21 
f 136/5/22 144/37/22 147/37/22 
f 147/37/22 145/5/22 136/5/22 
f 143/36/23 142/6/23 146/6/23 
f 146/6/23 148/36/23 143/36/23 
f 144/37/24 143/36/24 148/36/24 
f 148/36/24 147/37/24 144/37/24 
f 147/37/6 148/36/6 146/6/6 
f 146/6/6 145/5/6 147/37/6 
# 292 faces

