# 3ds Max Wavefront OBJ Exporter v0.97b - (c)2007 guruware
# File Created: 26.05.2021 21:54:32

mtllib bus.mtl

#
# object Car_12
#

v  -6.7573 1.2684 1.8777
v  -6.7573 3.5434 1.8777
v  -6.7573 3.5434 -1.8777
v  -6.7573 1.2684 -1.8777
v  5.4263 1.2684 1.8777
v  5.4263 3.5435 1.8777
v  6.3059 0.4618 -1.8777
v  6.3059 1.2684 -1.8777
v  6.3059 1.2684 1.8777
v  6.3059 0.4618 1.8777
v  -6.7573 0.4618 -1.8777
v  5.4263 1.2684 -1.8777
v  5.4263 0.4618 -1.8777
v  5.4263 3.5435 -1.8777
v  5.4263 0.4618 1.8777
v  -6.7573 0.4618 1.8777
v  5.5693 3.5435 -1.8777
v  5.5693 3.5435 1.8777
v  -4.5847 0.6837 -1.6406
v  -4.6176 0.5074 -1.6406
v  -4.0723 0.5074 -1.6406
v  -4.5847 0.6837 -1.9840
v  -4.6176 0.5074 -1.9840
v  -4.0723 0.5074 -1.9840
v  -4.4900 0.8386 -1.6406
v  -4.4900 0.8386 -1.9840
v  -4.3450 0.9537 -1.6406
v  -4.3450 0.9537 -1.9840
v  -4.1670 1.0149 -1.6406
v  -4.1670 1.0149 -1.9840
v  -3.9776 1.0149 -1.6406
v  -3.9776 1.0149 -1.9840
v  -3.7997 0.9537 -1.6406
v  -3.7997 0.9537 -1.9840
v  -3.6546 0.8386 -1.6406
v  -3.6546 0.8386 -1.9840
v  -3.5600 0.6837 -1.6406
v  -3.5600 0.6837 -1.9840
v  -3.5271 0.5074 -1.6406
v  -3.5271 0.5074 -1.9840
v  -3.5600 0.3312 -1.6406
v  -3.5600 0.3312 -1.9840
v  -3.6546 0.1762 -1.6406
v  -3.6546 0.1762 -1.9840
v  -3.7997 0.0612 -1.6406
v  -3.7997 0.0612 -1.9840
v  -3.9776 -0.0000 -1.6406
v  -3.9776 -0.0000 -1.9840
v  -4.1670 -0.0000 -1.6406
v  -4.1670 -0.0000 -1.9840
v  -4.3450 0.0612 -1.6406
v  -4.3450 0.0612 -1.9840
v  -4.4900 0.1762 -1.6406
v  -4.4900 0.1762 -1.9840
v  -4.5847 0.3312 -1.6406
v  -4.5847 0.3312 -1.9840
v  -4.5847 0.6837 2.0355
v  -4.6176 0.5074 2.0355
v  -4.0723 0.5074 2.0355
v  -4.5847 0.6837 1.6920
v  -4.6176 0.5074 1.6920
v  -4.0723 0.5074 1.6920
v  -4.4900 0.8386 2.0355
v  -4.4900 0.8386 1.6920
v  -4.3450 0.9537 2.0355
v  -4.3450 0.9537 1.6920
v  -4.1670 1.0149 2.0355
v  -4.1670 1.0149 1.6920
v  -3.9776 1.0149 2.0355
v  -3.9776 1.0149 1.6920
v  -3.7997 0.9537 2.0355
v  -3.7997 0.9537 1.6920
v  -3.6546 0.8386 2.0355
v  -3.6546 0.8386 1.6920
v  -3.5600 0.6837 2.0355
v  -3.5600 0.6837 1.6920
v  -3.5271 0.5074 2.0355
v  -3.5271 0.5074 1.6920
v  -3.5600 0.3312 2.0355
v  -3.5600 0.3312 1.6920
v  -3.6546 0.1762 2.0355
v  -3.6546 0.1762 1.6920
v  -3.7997 0.0612 2.0355
v  -3.7997 0.0612 1.6920
v  -3.9776 -0.0000 2.0355
v  -3.9776 -0.0000 1.6920
v  -4.1670 -0.0000 2.0355
v  -4.1670 -0.0000 1.6920
v  -4.3450 0.0612 2.0355
v  -4.3450 0.0612 1.6920
v  -4.4900 0.1762 2.0355
v  -4.4900 0.1762 1.6920
v  -4.5847 0.3312 2.0355
v  -4.5847 0.3312 1.6920
v  3.4819 0.6572 -1.6967
v  3.4490 0.4810 -1.6967
v  3.9942 0.4810 -1.6967
v  3.4819 0.6572 -2.0402
v  3.4490 0.4810 -2.0402
v  3.9942 0.4810 -2.0402
v  3.5765 0.8122 -1.6967
v  3.5765 0.8122 -2.0402
v  3.7216 0.9272 -1.6967
v  3.7216 0.9272 -2.0402
v  3.8996 0.9885 -1.6967
v  3.8996 0.9885 -2.0402
v  4.0889 0.9885 -1.6967
v  4.0889 0.9885 -2.0402
v  4.2669 0.9272 -1.6967
v  4.2669 0.9272 -2.0402
v  4.4119 0.8122 -1.6967
v  4.4119 0.8122 -2.0402
v  4.5066 0.6572 -1.6967
v  4.5066 0.6572 -2.0402
v  4.5395 0.4810 -1.6967
v  4.5395 0.4810 -2.0402
v  4.5066 0.3047 -1.6967
v  4.5066 0.3047 -2.0402
v  4.4119 0.1498 -1.6967
v  4.4119 0.1498 -2.0402
v  4.2669 0.0347 -1.6967
v  4.2669 0.0347 -2.0402
v  4.0889 -0.0265 -1.6967
v  4.0889 -0.0265 -2.0402
v  3.8996 -0.0265 -1.6967
v  3.8996 -0.0265 -2.0402
v  3.7216 0.0347 -1.6967
v  3.7216 0.0347 -2.0402
v  3.5765 0.1498 -1.6967
v  3.5765 0.1498 -2.0402
v  3.4819 0.3047 -1.6967
v  3.4819 0.3047 -2.0402
v  3.4819 0.6572 1.9794
v  3.4490 0.4810 1.9794
v  3.9942 0.4810 1.9794
v  3.4819 0.6572 1.6359
v  3.4490 0.4810 1.6359
v  3.9942 0.4810 1.6359
v  3.5765 0.8122 1.9794
v  3.5765 0.8122 1.6359
v  3.7216 0.9272 1.9794
v  3.7216 0.9272 1.6359
v  3.8996 0.9885 1.9794
v  3.8996 0.9885 1.6359
v  4.0889 0.9885 1.9794
v  4.0889 0.9885 1.6359
v  4.2669 0.9272 1.9794
v  4.2669 0.9272 1.6359
v  4.4119 0.8122 1.9794
v  4.4119 0.8122 1.6359
v  4.5066 0.6572 1.9794
v  4.5066 0.6572 1.6359
v  4.5395 0.4810 1.9794
v  4.5395 0.4810 1.6359
v  4.5066 0.3047 1.9794
v  4.5066 0.3047 1.6359
v  4.4119 0.1498 1.9794
v  4.4119 0.1498 1.6359
v  4.2669 0.0347 1.9794
v  4.2669 0.0347 1.6359
v  4.0889 -0.0265 1.9794
v  4.0889 -0.0265 1.6359
v  3.8996 -0.0265 1.9794
v  3.8996 -0.0265 1.6359
v  3.7216 0.0347 1.9794
v  3.7216 0.0347 1.6359
v  3.5765 0.1498 1.9794
v  3.5765 0.1498 1.6359
v  3.4819 0.3047 1.9794
v  3.4819 0.3047 1.6359
# 170 vertices

vn -1.0000 -0.0000 -0.0000
vn -0.0000 0.0000 1.0000
vn 1.0000 0.0000 0.0000
vn 0.0000 0.0000 -1.0000
vn -0.0000 1.0000 -0.0000
vn 0.0000 -1.0000 0.0000
vn 0.9514 0.3080 0.0000
vn -0.0000 -0.0000 1.0000
vn -0.9830 0.1834 -0.0000
vn -0.8534 0.5213 -0.0000
vn -0.6213 0.7835 -0.0000
vn 0.0000 -0.0000 -1.0000
vn -0.3253 0.9456 -0.0000
vn 0.3253 0.9456 0.0000
vn 0.6213 0.7835 0.0000
vn 0.8534 0.5213 0.0000
vn 0.9830 0.1834 0.0000
vn 0.9830 -0.1834 0.0000
vn 0.8534 -0.5213 0.0000
vn 0.6213 -0.7835 0.0000
vn 0.3253 -0.9456 0.0000
vn -0.3253 -0.9456 -0.0000
vn -0.6213 -0.7835 -0.0000
vn -0.8534 -0.5213 -0.0000
vn -0.9830 -0.1834 -0.0000
# 25 vertex normals

vt 0.9431 0.9906 0.0000
vt 0.8071 0.9906 0.0000
vt 0.8071 0.7479 0.0000
vt 0.9431 0.7479 0.0000
vt 0.7371 0.3205 0.0000
vt 0.7371 0.4676 0.0000
vt 0.0087 0.4676 0.0000
vt 0.0087 0.3205 0.0000
vt 0.7630 0.4864 0.0000
vt 0.8107 0.4864 0.0000
vt 0.8107 0.7291 0.0000
vt 0.7630 0.7291 0.0000
vt 0.7896 0.0504 0.0000
vt 0.7896 0.1026 0.0000
vt 0.0613 0.1026 0.0000
vt 0.0613 0.0504 0.0000
vt 0.7456 0.7291 0.0000
vt 0.0173 0.7291 0.0000
vt 0.0173 0.4864 0.0000
vt 0.7456 0.4864 0.0000
vt 0.7371 0.9906 0.0000
vt 0.0087 0.9906 0.0000
vt 0.0087 0.7479 0.0000
vt 0.7371 0.7479 0.0000
vt 0.7896 0.7479 0.0000
vt 0.7896 0.9906 0.0000
vt 0.0613 0.2496 0.0000
vt 0.0527 0.2496 0.0000
vt 0.0087 0.1026 0.0000
vt 0.0087 0.7291 0.0000
vt 0.0087 0.4864 0.0000
vt 0.7371 0.2684 0.0000
vt 0.7896 0.2684 0.0000
vt 0.7896 0.3205 0.0000
vt 0.9913 0.7479 0.0000
vt 0.9913 0.9906 0.0000
vt 0.7896 0.2496 0.0000
vt 0.9519 0.4864 0.0000
vt 0.9519 0.7291 0.0000
vt 0.0087 0.0504 0.0000
vt 0.7456 0.4676 0.0000
vt 0.8916 0.3126 0.0000
vt 0.8897 0.3012 0.0000
vt 0.9223 0.3012 0.0000
vt 0.4608 0.0316 0.0000
vt 0.4608 0.0094 0.0000
vt 0.4715 0.0094 0.0000
vt 0.4715 0.0316 0.0000
vt 0.9529 0.2282 0.0000
vt 0.9223 0.2168 0.0000
vt 0.9549 0.2168 0.0000
vt 0.8973 0.3226 0.0000
vt 0.4506 0.0316 0.0000
vt 0.4506 0.0094 0.0000
vt 0.9472 0.2382 0.0000
vt 0.9060 0.3300 0.0000
vt 0.4423 0.0316 0.0000
vt 0.4423 0.0094 0.0000
vt 0.9386 0.2456 0.0000
vt 0.9166 0.3340 0.0000
vt 0.5982 0.0316 0.0000
vt 0.5982 0.0094 0.0000
vt 0.6081 0.0094 0.0000
vt 0.6081 0.0316 0.0000
vt 0.9279 0.2496 0.0000
vt 0.9279 0.3340 0.0000
vt 0.5871 0.0316 0.0000
vt 0.5871 0.0094 0.0000
vt 0.9166 0.2496 0.0000
vt 0.9386 0.3300 0.0000
vt 0.5760 0.0316 0.0000
vt 0.5760 0.0094 0.0000
vt 0.9060 0.2456 0.0000
vt 0.9472 0.3226 0.0000
vt 0.5663 0.0316 0.0000
vt 0.5663 0.0094 0.0000
vt 0.8973 0.2382 0.0000
vt 0.9529 0.3126 0.0000
vt 0.4168 0.0316 0.0000
vt 0.4168 0.0094 0.0000
vt 0.4249 0.0094 0.0000
vt 0.4249 0.0316 0.0000
vt 0.8916 0.2282 0.0000
vt 0.9549 0.3012 0.0000
vt 0.4068 0.0316 0.0000
vt 0.4068 0.0094 0.0000
vt 0.8897 0.2168 0.0000
vt 0.9529 0.2898 0.0000
vt 0.3961 0.0316 0.0000
vt 0.3961 0.0094 0.0000
vt 0.8916 0.2054 0.0000
vt 0.9472 0.2798 0.0000
vt 0.3860 0.0316 0.0000
vt 0.3860 0.0094 0.0000
vt 0.8973 0.1954 0.0000
vt 0.9386 0.2724 0.0000
vt 0.3776 0.0316 0.0000
vt 0.3776 0.0094 0.0000
vt 0.9060 0.1879 0.0000
vt 0.9279 0.2684 0.0000
vt 0.5390 0.0316 0.0000
vt 0.5390 0.0094 0.0000
vt 0.5489 0.0094 0.0000
vt 0.5489 0.0316 0.0000
vt 0.9166 0.1840 0.0000
vt 0.9166 0.2684 0.0000
vt 0.5278 0.0316 0.0000
vt 0.5278 0.0094 0.0000
vt 0.9279 0.1840 0.0000
vt 0.9060 0.2724 0.0000
vt 0.5167 0.0316 0.0000
vt 0.5167 0.0094 0.0000
vt 0.9386 0.1879 0.0000
vt 0.8973 0.2798 0.0000
vt 0.5070 0.0316 0.0000
vt 0.5070 0.0094 0.0000
vt 0.9472 0.1954 0.0000
vt 0.8916 0.2898 0.0000
vt 0.4815 0.0316 0.0000
vt 0.4815 0.0094 0.0000
vt 0.4896 0.0094 0.0000
vt 0.4896 0.0316 0.0000
vt 0.9529 0.2054 0.0000
vt 0.8090 0.3126 0.0000
vt 0.8071 0.3012 0.0000
vt 0.8397 0.3012 0.0000
vt 0.8998 0.1652 0.0000
vt 0.8998 0.1430 0.0000
vt 0.9105 0.1430 0.0000
vt 0.9105 0.1652 0.0000
vt 0.8703 0.3970 0.0000
vt 0.8397 0.3856 0.0000
vt 0.8723 0.3856 0.0000
vt 0.8147 0.3226 0.0000
vt 0.8897 0.1652 0.0000
vt 0.8897 0.1430 0.0000
vt 0.8646 0.4070 0.0000
vt 0.8234 0.3300 0.0000
vt 0.3528 0.0316 0.0000
vt 0.3528 0.0094 0.0000
vt 0.3602 0.0094 0.0000
vt 0.3602 0.0316 0.0000
vt 0.8560 0.4145 0.0000
vt 0.8340 0.3340 0.0000
vt 0.3430 0.0316 0.0000
vt 0.3430 0.0094 0.0000
vt 0.8453 0.4184 0.0000
vt 0.8453 0.3340 0.0000
vt 0.3318 0.0316 0.0000
vt 0.3318 0.0094 0.0000
vt 0.8340 0.4184 0.0000
vt 0.8560 0.3300 0.0000
vt 0.3207 0.0316 0.0000
vt 0.3207 0.0094 0.0000
vt 0.8234 0.4145 0.0000
vt 0.8646 0.3226 0.0000
vt 0.3110 0.0316 0.0000
vt 0.3110 0.0094 0.0000
vt 0.8147 0.4070 0.0000
vt 0.8703 0.3126 0.0000
vt 0.3038 0.0316 0.0000
vt 0.3038 0.0094 0.0000
vt 0.8090 0.3970 0.0000
vt 0.8723 0.3012 0.0000
vt 0.6947 0.0316 0.0000
vt 0.6947 0.0094 0.0000
vt 0.7047 0.0094 0.0000
vt 0.7047 0.0316 0.0000
vt 0.8071 0.3856 0.0000
vt 0.8703 0.2898 0.0000
vt 0.6839 0.0316 0.0000
vt 0.6839 0.0094 0.0000
vt 0.8090 0.3742 0.0000
vt 0.8646 0.2798 0.0000
vt 0.6738 0.0316 0.0000
vt 0.6738 0.0094 0.0000
vt 0.8147 0.3642 0.0000
vt 0.8560 0.2724 0.0000
vt 0.1315 0.0316 0.0000
vt 0.1315 0.0094 0.0000
vt 0.1389 0.0094 0.0000
vt 0.1389 0.0316 0.0000
vt 0.8234 0.3568 0.0000
vt 0.8453 0.2684 0.0000
vt 0.1216 0.0316 0.0000
vt 0.1216 0.0094 0.0000
vt 0.8340 0.3528 0.0000
vt 0.8340 0.2684 0.0000
vt 0.1104 0.0316 0.0000
vt 0.1104 0.0094 0.0000
vt 0.8453 0.3528 0.0000
vt 0.8234 0.2724 0.0000
vt 0.0993 0.0316 0.0000
vt 0.0993 0.0094 0.0000
vt 0.8560 0.3568 0.0000
vt 0.8147 0.2798 0.0000
vt 0.0896 0.0316 0.0000
vt 0.0896 0.0094 0.0000
vt 0.8646 0.3642 0.0000
vt 0.8090 0.2898 0.0000
vt 0.0825 0.0316 0.0000
vt 0.0825 0.0094 0.0000
vt 0.8703 0.3742 0.0000
vt 0.9205 0.1430 0.0000
vt 0.9205 0.1652 0.0000
vt 0.8090 0.0593 0.0000
vt 0.8071 0.0480 0.0000
vt 0.8397 0.0480 0.0000
vt 0.6357 0.0316 0.0000
vt 0.6357 0.0094 0.0000
vt 0.6464 0.0094 0.0000
vt 0.6464 0.0316 0.0000
vt 0.9529 0.3970 0.0000
vt 0.9223 0.3856 0.0000
vt 0.9549 0.3856 0.0000
vt 0.8147 0.0694 0.0000
vt 0.6255 0.0316 0.0000
vt 0.6255 0.0094 0.0000
vt 0.9472 0.4070 0.0000
vt 0.8234 0.0768 0.0000
vt 0.0577 0.0316 0.0000
vt 0.0577 0.0094 0.0000
vt 0.0651 0.0094 0.0000
vt 0.0651 0.0316 0.0000
vt 0.9386 0.4145 0.0000
vt 0.8340 0.0808 0.0000
vt 0.0478 0.0316 0.0000
vt 0.0478 0.0094 0.0000
vt 0.9279 0.4184 0.0000
vt 0.8453 0.0808 0.0000
vt 0.0367 0.0316 0.0000
vt 0.0367 0.0094 0.0000
vt 0.9166 0.4184 0.0000
vt 0.8560 0.0768 0.0000
vt 0.0256 0.0316 0.0000
vt 0.0256 0.0094 0.0000
vt 0.9060 0.4145 0.0000
vt 0.8646 0.0694 0.0000
vt 0.0159 0.0316 0.0000
vt 0.0159 0.0094 0.0000
vt 0.8973 0.4070 0.0000
vt 0.8703 0.0593 0.0000
vt 0.0087 0.0316 0.0000
vt 0.0087 0.0094 0.0000
vt 0.8916 0.3970 0.0000
vt 0.8723 0.0480 0.0000
vt 0.9017 0.4594 0.0000
vt 0.9017 0.4372 0.0000
vt 0.9117 0.4372 0.0000
vt 0.9117 0.4594 0.0000
vt 0.8897 0.3856 0.0000
vt 0.8703 0.0366 0.0000
vt 0.8910 0.4594 0.0000
vt 0.8910 0.4372 0.0000
vt 0.8916 0.3742 0.0000
vt 0.8646 0.0266 0.0000
vt 0.8808 0.4594 0.0000
vt 0.8808 0.4372 0.0000
vt 0.8973 0.3642 0.0000
vt 0.8560 0.0191 0.0000
vt 0.8560 0.4594 0.0000
vt 0.8560 0.4372 0.0000
vt 0.8634 0.4372 0.0000
vt 0.8634 0.4594 0.0000
vt 0.9060 0.3568 0.0000
vt 0.8453 0.0152 0.0000
vt 0.8462 0.4594 0.0000
vt 0.8462 0.4372 0.0000
vt 0.9166 0.3528 0.0000
vt 0.8340 0.0152 0.0000
vt 0.8350 0.4594 0.0000
vt 0.8350 0.4372 0.0000
vt 0.9279 0.3528 0.0000
vt 0.8234 0.0191 0.0000
vt 0.8239 0.4594 0.0000
vt 0.8239 0.4372 0.0000
vt 0.9386 0.3568 0.0000
vt 0.8147 0.0266 0.0000
vt 0.8142 0.4594 0.0000
vt 0.8142 0.4372 0.0000
vt 0.9472 0.3642 0.0000
vt 0.8090 0.0366 0.0000
vt 0.8071 0.4594 0.0000
vt 0.8071 0.4372 0.0000
vt 0.9529 0.3742 0.0000
vt 0.6564 0.0094 0.0000
vt 0.6564 0.0316 0.0000
vt 0.8090 0.2282 0.0000
vt 0.8071 0.2168 0.0000
vt 0.8397 0.2168 0.0000
vt 0.8998 0.1241 0.0000
vt 0.8998 0.1019 0.0000
vt 0.9105 0.1019 0.0000
vt 0.9105 0.1241 0.0000
vt 0.8703 0.1438 0.0000
vt 0.8397 0.1324 0.0000
vt 0.8723 0.1324 0.0000
vt 0.8147 0.2382 0.0000
vt 0.8897 0.1241 0.0000
vt 0.8897 0.1019 0.0000
vt 0.8646 0.1538 0.0000
vt 0.8234 0.2456 0.0000
vt 0.2790 0.0316 0.0000
vt 0.2790 0.0094 0.0000
vt 0.2864 0.0094 0.0000
vt 0.2864 0.0316 0.0000
vt 0.8560 0.1612 0.0000
vt 0.8340 0.2496 0.0000
vt 0.2692 0.0316 0.0000
vt 0.2692 0.0094 0.0000
vt 0.8453 0.1652 0.0000
vt 0.8453 0.2496 0.0000
vt 0.2580 0.0316 0.0000
vt 0.2580 0.0094 0.0000
vt 0.8340 0.1652 0.0000
vt 0.8560 0.2456 0.0000
vt 0.2469 0.0316 0.0000
vt 0.2469 0.0094 0.0000
vt 0.8234 0.1612 0.0000
vt 0.8646 0.2382 0.0000
vt 0.2372 0.0316 0.0000
vt 0.2372 0.0094 0.0000
vt 0.8147 0.1538 0.0000
vt 0.8703 0.2282 0.0000
vt 0.2301 0.0316 0.0000
vt 0.2301 0.0094 0.0000
vt 0.8090 0.1438 0.0000
vt 0.8723 0.2168 0.0000
vt 0.7429 0.0316 0.0000
vt 0.7429 0.0094 0.0000
vt 0.7529 0.0094 0.0000
vt 0.7529 0.0316 0.0000
vt 0.8071 0.1324 0.0000
vt 0.8703 0.2054 0.0000
vt 0.7322 0.0316 0.0000
vt 0.7322 0.0094 0.0000
vt 0.8090 0.1210 0.0000
vt 0.8646 0.1954 0.0000
vt 0.7221 0.0316 0.0000
vt 0.7221 0.0094 0.0000
vt 0.8147 0.1110 0.0000
vt 0.8560 0.1879 0.0000
vt 0.2053 0.0316 0.0000
vt 0.2053 0.0094 0.0000
vt 0.2126 0.0094 0.0000
vt 0.2126 0.0316 0.0000
vt 0.8234 0.1035 0.0000
vt 0.8453 0.1840 0.0000
vt 0.1954 0.0316 0.0000
vt 0.1954 0.0094 0.0000
vt 0.8340 0.0996 0.0000
vt 0.8340 0.1840 0.0000
vt 0.1842 0.0316 0.0000
vt 0.1842 0.0094 0.0000
vt 0.8453 0.0996 0.0000
vt 0.8234 0.1879 0.0000
vt 0.1731 0.0316 0.0000
vt 0.1731 0.0094 0.0000
vt 0.8560 0.1035 0.0000
vt 0.8147 0.1954 0.0000
vt 0.1634 0.0316 0.0000
vt 0.1634 0.0094 0.0000
vt 0.8646 0.1110 0.0000
vt 0.8090 0.2054 0.0000
vt 0.1563 0.0316 0.0000
vt 0.1563 0.0094 0.0000
vt 0.8703 0.1210 0.0000
vt 0.9205 0.1019 0.0000
vt 0.9205 0.1241 0.0000
vt 0.0087 0.2684 0.0000
# 370 texture coords

o Car_12
g Car_12
usemtl CAR_12
s off
f 1/1/1 2/2/1 3/3/1 
f 3/3/1 4/4/1 1/1/1 
f 5/5/2 6/6/2 2/7/2 
f 2/7/2 1/8/2 5/5/2 
f 7/9/3 8/10/3 9/11/3 
f 9/11/3 10/12/3 7/9/3 
f 11/13/4 4/14/4 12/15/4 
f 12/15/4 13/16/4 11/13/4 
f 2/17/5 6/18/5 14/19/5 
f 14/19/5 3/20/5 2/17/5 
f 15/21/6 16/22/6 11/23/6 
f 11/23/6 13/24/6 15/21/6 
f 13/24/6 7/25/6 10/26/6 
f 10/26/6 15/21/6 13/24/6 
f 12/15/4 14/27/4 17/28/4 
f 17/28/4 8/29/4 12/15/4 
f 6/18/5 18/30/5 17/31/5 
f 17/31/5 14/19/5 6/18/5 
f 5/5/2 15/32/2 10/33/2 
f 10/33/2 9/34/2 5/5/2 
f 4/4/1 11/35/1 16/36/1 
f 16/36/1 1/1/1 4/4/1 
f 4/14/4 3/37/4 14/27/4 
f 14/27/4 12/15/4 4/14/4 
f 8/10/7 17/38/7 18/39/7 
f 18/39/7 9/11/7 8/10/7 
f 8/29/4 7/40/4 13/16/4 
f 13/16/4 12/15/4 8/29/4 
f 9/34/2 18/41/2 6/6/2 
f 6/6/2 5/5/2 9/34/2 
f 19/42/8 20/43/8 21/44/8 
f 19/45/9 22/46/9 23/47/9 
f 23/47/9 20/48/9 19/45/9 
f 22/49/4 24/50/4 23/51/4 
f 25/52/8 19/42/8 21/44/8 
f 25/53/10 26/54/10 22/46/10 
f 22/46/10 19/45/10 25/53/10 
f 26/55/4 24/50/4 22/49/4 
f 27/56/2 25/52/2 21/44/2 
f 27/57/11 28/58/11 26/54/11 
f 26/54/11 25/53/11 27/57/11 
f 28/59/12 24/50/12 26/55/12 
f 29/60/2 27/56/2 21/44/2 
f 29/61/13 30/62/13 28/63/13 
f 28/63/13 27/64/13 29/61/13 
f 30/65/4 24/50/4 28/59/4 
f 31/66/2 29/60/2 21/44/2 
f 31/67/5 32/68/5 30/62/5 
f 30/62/5 29/61/5 31/67/5 
f 32/69/4 24/50/4 30/65/4 
f 33/70/8 31/66/8 21/44/8 
f 33/71/14 34/72/14 32/68/14 
f 32/68/14 31/67/14 33/71/14 
f 34/73/4 24/50/4 32/69/4 
f 35/74/2 33/70/2 21/44/2 
f 35/75/15 36/76/15 34/72/15 
f 34/72/15 33/71/15 35/75/15 
f 36/77/12 24/50/12 34/73/12 
f 37/78/2 35/74/2 21/44/2 
f 37/79/16 38/80/16 36/81/16 
f 36/81/16 35/82/16 37/79/16 
f 38/83/4 24/50/4 36/77/4 
f 39/84/8 37/78/8 21/44/8 
f 39/85/17 40/86/17 38/80/17 
f 38/80/17 37/79/17 39/85/17 
f 40/87/12 24/50/12 38/83/12 
f 41/88/2 39/84/2 21/44/2 
f 41/89/18 42/90/18 40/86/18 
f 40/86/18 39/85/18 41/89/18 
f 42/91/4 24/50/4 40/87/4 
f 43/92/8 41/88/8 21/44/8 
f 43/93/19 44/94/19 42/90/19 
f 42/90/19 41/89/19 43/93/19 
f 44/95/12 24/50/12 42/91/12 
f 45/96/8 43/92/8 21/44/8 
f 45/97/20 46/98/20 44/94/20 
f 44/94/20 43/93/20 45/97/20 
f 46/99/4 24/50/4 44/95/4 
f 47/100/2 45/96/2 21/44/2 
f 47/101/21 48/102/21 46/103/21 
f 46/103/21 45/104/21 47/101/21 
f 48/105/12 24/50/12 46/99/12 
f 49/106/2 47/100/2 21/44/2 
f 49/107/6 50/108/6 48/102/6 
f 48/102/6 47/101/6 49/107/6 
f 50/109/4 24/50/4 48/105/4 
f 51/110/8 49/106/8 21/44/8 
f 51/111/22 52/112/22 50/108/22 
f 50/108/22 49/107/22 51/111/22 
f 52/113/4 24/50/4 50/109/4 
f 53/114/8 51/110/8 21/44/8 
f 53/115/23 54/116/23 52/112/23 
f 52/112/23 51/111/23 53/115/23 
f 54/117/4 24/50/4 52/113/4 
f 55/118/2 53/114/2 21/44/2 
f 55/119/24 56/120/24 54/121/24 
f 54/121/24 53/122/24 55/119/24 
f 56/123/12 24/50/12 54/117/12 
f 20/43/2 55/118/2 21/44/2 
f 20/48/25 23/47/25 56/120/25 
f 56/120/25 55/119/25 20/48/25 
f 23/51/12 24/50/12 56/123/12 
f 57/124/2 58/125/2 59/126/2 
f 57/127/9 60/128/9 61/129/9 
f 61/129/9 58/130/9 57/127/9 
f 60/131/12 62/132/12 61/133/12 
f 63/134/2 57/124/2 59/126/2 
f 63/135/10 64/136/10 60/128/10 
f 60/128/10 57/127/10 63/135/10 
f 64/137/4 62/132/4 60/131/4 
f 65/138/2 63/134/2 59/126/2 
f 65/139/11 66/140/11 64/141/11 
f 64/141/11 63/142/11 65/139/11 
f 66/143/4 62/132/4 64/137/4 
f 67/144/2 65/138/2 59/126/2 
f 67/145/13 68/146/13 66/140/13 
f 66/140/13 65/139/13 67/145/13 
f 68/147/4 62/132/4 66/143/4 
f 69/148/2 67/144/2 59/126/2 
f 69/149/5 70/150/5 68/146/5 
f 68/146/5 67/145/5 69/149/5 
f 70/151/4 62/132/4 68/147/4 
f 71/152/2 69/148/2 59/126/2 
f 71/153/14 72/154/14 70/150/14 
f 70/150/14 69/149/14 71/153/14 
f 72/155/4 62/132/4 70/151/4 
f 73/156/2 71/152/2 59/126/2 
f 73/157/15 74/158/15 72/154/15 
f 72/154/15 71/153/15 73/157/15 
f 74/159/12 62/132/12 72/155/12 
f 75/160/2 73/156/2 59/126/2 
f 75/161/16 76/162/16 74/158/16 
f 74/158/16 73/157/16 75/161/16 
f 76/163/12 62/132/12 74/159/12 
f 77/164/2 75/160/2 59/126/2 
f 77/165/17 78/166/17 76/167/17 
f 76/167/17 75/168/17 77/165/17 
f 78/169/12 62/132/12 76/163/12 
f 79/170/8 77/164/8 59/126/8 
f 79/171/18 80/172/18 78/166/18 
f 78/166/18 77/165/18 79/171/18 
f 80/173/4 62/132/4 78/169/4 
f 81/174/2 79/170/2 59/126/2 
f 81/175/19 82/176/19 80/172/19 
f 80/172/19 79/171/19 81/175/19 
f 82/177/4 62/132/4 80/173/4 
f 83/178/8 81/174/8 59/126/8 
f 83/179/20 84/180/20 82/181/20 
f 82/181/20 81/182/20 83/179/20 
f 84/183/4 62/132/4 82/177/4 
f 85/184/2 83/178/2 59/126/2 
f 85/185/21 86/186/21 84/180/21 
f 84/180/21 83/179/21 85/185/21 
f 86/187/12 62/132/12 84/183/12 
f 87/188/2 85/184/2 59/126/2 
f 87/189/6 88/190/6 86/186/6 
f 86/186/6 85/185/6 87/189/6 
f 88/191/12 62/132/12 86/187/12 
f 89/192/2 87/188/2 59/126/2 
f 89/193/22 90/194/22 88/190/22 
f 88/190/22 87/189/22 89/193/22 
f 90/195/12 62/132/12 88/191/12 
f 91/196/8 89/192/8 59/126/8 
f 91/197/23 92/198/23 90/194/23 
f 90/194/23 89/193/23 91/197/23 
f 92/199/12 62/132/12 90/195/12 
f 93/200/2 91/196/2 59/126/2 
f 93/201/24 94/202/24 92/198/24 
f 92/198/24 91/197/24 93/201/24 
f 94/203/12 62/132/12 92/199/12 
f 58/125/2 93/200/2 59/126/2 
f 58/130/25 61/129/25 94/204/25 
f 94/204/25 93/205/25 58/130/25 
f 61/133/4 62/132/4 94/203/4 
f 95/206/2 96/207/2 97/208/2 
f 95/209/9 98/210/9 99/211/9 
f 99/211/9 96/212/9 95/209/9 
f 98/213/12 100/214/12 99/215/12 
f 101/216/8 95/206/8 97/208/8 
f 101/217/10 102/218/10 98/210/10 
f 98/210/10 95/209/10 101/217/10 
f 102/219/4 100/214/4 98/213/4 
f 103/220/8 101/216/8 97/208/8 
f 103/221/11 104/222/11 102/223/11 
f 102/223/11 101/224/11 103/221/11 
f 104/225/4 100/214/4 102/219/4 
f 105/226/2 103/220/2 97/208/2 
f 105/227/13 106/228/13 104/222/13 
f 104/222/13 103/221/13 105/227/13 
f 106/229/12 100/214/12 104/225/12 
f 107/230/2 105/226/2 97/208/2 
f 107/231/5 108/232/5 106/228/5 
f 106/228/5 105/227/5 107/231/5 
f 108/233/4 100/214/4 106/229/4 
f 109/234/8 107/230/8 97/208/8 
f 109/235/14 110/236/14 108/232/14 
f 108/232/14 107/231/14 109/235/14 
f 110/237/4 100/214/4 108/233/4 
f 111/238/2 109/234/2 97/208/2 
f 111/239/15 112/240/15 110/236/15 
f 110/236/15 109/235/15 111/239/15 
f 112/241/12 100/214/12 110/237/12 
f 113/242/2 111/238/2 97/208/2 
f 113/243/16 114/244/16 112/240/16 
f 112/240/16 111/239/16 113/243/16 
f 114/245/12 100/214/12 112/241/12 
f 115/246/8 113/242/8 97/208/8 
f 115/247/17 116/248/17 114/249/17 
f 114/249/17 113/250/17 115/247/17 
f 116/251/4 100/214/4 114/245/4 
f 117/252/2 115/246/2 97/208/2 
f 117/253/18 118/254/18 116/248/18 
f 116/248/18 115/247/18 117/253/18 
f 118/255/12 100/214/12 116/251/12 
f 119/256/8 117/252/8 97/208/8 
f 119/257/19 120/258/19 118/254/19 
f 118/254/19 117/253/19 119/257/19 
f 120/259/4 100/214/4 118/255/4 
f 121/260/8 119/256/8 97/208/8 
f 121/261/20 122/262/20 120/263/20 
f 120/263/20 119/264/20 121/261/20 
f 122/265/4 100/214/4 120/259/4 
f 123/266/2 121/260/2 97/208/2 
f 123/267/21 124/268/21 122/262/21 
f 122/262/21 121/261/21 123/267/21 
f 124/269/12 100/214/12 122/265/12 
f 125/270/2 123/266/2 97/208/2 
f 125/271/6 126/272/6 124/268/6 
f 124/268/6 123/267/6 125/271/6 
f 126/273/4 100/214/4 124/269/4 
f 127/274/8 125/270/8 97/208/8 
f 127/275/22 128/276/22 126/272/22 
f 126/272/22 125/271/22 127/275/22 
f 128/277/4 100/214/4 126/273/4 
f 129/278/2 127/274/2 97/208/2 
f 129/279/23 130/280/23 128/276/23 
f 128/276/23 127/275/23 129/279/23 
f 130/281/12 100/214/12 128/277/12 
f 131/282/2 129/278/2 97/208/2 
f 131/283/24 132/284/24 130/280/24 
f 130/280/24 129/279/24 131/283/24 
f 132/285/12 100/214/12 130/281/12 
f 96/207/8 131/282/8 97/208/8 
f 96/212/25 99/211/25 132/286/25 
f 132/286/25 131/287/25 96/212/25 
f 99/215/4 100/214/4 132/285/4 
f 133/288/2 134/289/2 135/290/2 
f 133/291/9 136/292/9 137/293/9 
f 137/293/9 134/294/9 133/291/9 
f 136/295/4 138/296/4 137/297/4 
f 139/298/2 133/288/2 135/290/2 
f 139/299/10 140/300/10 136/292/10 
f 136/292/10 133/291/10 139/299/10 
f 140/301/4 138/296/4 136/295/4 
f 141/302/2 139/298/2 135/290/2 
f 141/303/11 142/304/11 140/305/11 
f 140/305/11 139/306/11 141/303/11 
f 142/307/4 138/296/4 140/301/4 
f 143/308/2 141/302/2 135/290/2 
f 143/309/13 144/310/13 142/304/13 
f 142/304/13 141/303/13 143/309/13 
f 144/311/4 138/296/4 142/307/4 
f 145/312/2 143/308/2 135/290/2 
f 145/313/5 146/314/5 144/310/5 
f 144/310/5 143/309/5 145/313/5 
f 146/315/4 138/296/4 144/311/4 
f 147/316/2 145/312/2 135/290/2 
f 147/317/14 148/318/14 146/314/14 
f 146/314/14 145/313/14 147/317/14 
f 148/319/4 138/296/4 146/315/4 
f 149/320/2 147/316/2 135/290/2 
f 149/321/15 150/322/15 148/318/15 
f 148/318/15 147/317/15 149/321/15 
f 150/323/4 138/296/4 148/319/4 
f 151/324/2 149/320/2 135/290/2 
f 151/325/16 152/326/16 150/322/16 
f 150/322/16 149/321/16 151/325/16 
f 152/327/4 138/296/4 150/323/4 
f 153/328/2 151/324/2 135/290/2 
f 153/329/17 154/330/17 152/331/17 
f 152/331/17 151/332/17 153/329/17 
f 154/333/12 138/296/12 152/327/12 
f 155/334/2 153/328/2 135/290/2 
f 155/335/18 156/336/18 154/330/18 
f 154/330/18 153/329/18 155/335/18 
f 156/337/4 138/296/4 154/333/4 
f 157/338/8 155/334/8 135/290/8 
f 157/339/19 158/340/19 156/336/19 
f 156/336/19 155/335/19 157/339/19 
f 158/341/12 138/296/12 156/337/12 
f 159/342/8 157/338/8 135/290/8 
f 159/343/20 160/344/20 158/345/20 
f 158/345/20 157/346/20 159/343/20 
f 160/347/4 138/296/4 158/341/4 
f 161/348/2 159/342/2 135/290/2 
f 161/349/21 162/350/21 160/344/21 
f 160/344/21 159/343/21 161/349/21 
f 162/351/4 138/296/4 160/347/4 
f 163/352/2 161/348/2 135/290/2 
f 163/353/6 164/354/6 162/350/6 
f 162/350/6 161/349/6 163/353/6 
f 164/355/12 138/296/12 162/351/12 
f 165/356/8 163/352/8 135/290/8 
f 165/357/22 166/358/22 164/354/22 
f 164/354/22 163/353/22 165/357/22 
f 166/359/12 138/296/12 164/355/12 
f 167/360/2 165/356/2 135/290/2 
f 167/361/23 168/362/23 166/358/23 
f 166/358/23 165/357/23 167/361/23 
f 168/363/12 138/296/12 166/359/12 
f 169/364/2 167/360/2 135/290/2 
f 169/365/24 170/366/24 168/362/24 
f 168/362/24 167/361/24 169/365/24 
f 170/367/12 138/296/12 168/363/12 
f 134/289/8 169/364/8 135/290/8 
f 134/294/25 137/293/25 170/368/25 
f 170/368/25 169/369/25 134/294/25 
f 137/297/12 138/296/12 170/367/12 
f 1/8/2 16/370/2 15/32/2 
f 15/32/2 5/5/2 1/8/2 
# 320 faces

