# 3ds Max Wavefront OBJ Exporter v0.99 - (c)2007 guruware
# File Created: 24.05.2021 22:24:23

mtllib player_model.mtl

#
# object player
#

v  -0.5000 3.9246 0.5000
v  0.5000 3.9246 0.5000
v  0.5000 3.9246 -0.5000
v  -0.5000 3.9246 -0.5000
v  -0.5000 2.9246 0.5000
v  0.5000 2.9246 0.5000
v  0.5000 2.9246 -0.5000
v  -0.5000 2.9246 -0.5000
v  -0.5000 2.9246 -1.0168
v  -0.5000 2.9246 1.0168
v  0.5000 2.9246 -1.0168
v  0.5000 2.9246 1.0168
v  -0.5000 1.2849 -1.0168
v  -0.5000 1.2849 1.0168
v  0.5000 1.2849 -1.0168
v  0.5000 1.2849 1.0168
v  -0.5000 1.2849 -0.5739
v  -0.5000 1.2849 0.5739
v  0.5000 1.2849 -0.5739
v  0.5000 1.2849 0.5739
v  -0.5000 0.0008 -0.5739
v  -0.5000 0.0008 0.5739
v  0.5000 0.0008 -0.5739
v  0.5000 0.0008 0.5739
# 24 vertices

vn 0.0000 1.0000 -0.0000
vn 0.0000 0.0000 1.0000
vn 1.0000 0.0000 -0.0000
vn 0.0000 0.0000 -1.0000
vn -1.0000 0.0000 -0.0000
vn 0.0000 0.0000 -0.0000
vn 0.0000 -1.0000 -0.0000
# 7 vertex normals

vt 0.0000 0.0000 0.0000
vt 1.0000 0.0000 0.0000
vt 1.0000 1.0000 0.0000
vt 0.0000 1.0000 0.0000
# 4 texture coords

o player
g player
usemtl wire_115115115
s 4
f 1/1/1 2/2/1 3/3/1 
f 3/3/1 4/4/1 1/1/1 
s 8
f 5/1/2 6/2/2 2/3/2 
f 2/3/2 1/4/2 5/1/2 
s 16
f 6/1/3 7/2/3 3/3/3 
f 3/3/3 2/4/3 6/1/3 
s 32
f 7/1/4 8/2/4 4/3/4 
f 4/3/4 3/4/4 7/1/4 
s 64
f 8/1/5 5/2/5 1/3/5 
f 1/3/5 4/4/5 8/1/5 
s off
f 5/2/6 8/1/6 9/1/6 
f 9/1/6 10/2/6 5/2/6 
f 8/2/1 7/1/1 11/1/1 
f 11/1/1 9/2/1 8/2/1 
f 7/2/6 6/1/6 12/1/6 
f 12/1/6 11/2/6 7/2/6 
f 6/2/1 5/1/1 10/1/1 
f 10/1/1 12/2/1 6/2/1 
f 10/2/5 9/1/5 13/1/5 
f 13/1/5 14/2/5 10/2/5 
f 9/2/4 11/1/4 15/1/4 
f 15/1/4 13/2/4 9/2/4 
f 11/2/3 12/1/3 16/1/3 
f 16/1/3 15/2/3 11/2/3 
f 12/2/2 10/1/2 14/1/2 
f 14/1/2 16/2/2 12/2/2 
f 14/2/6 13/1/6 17/1/6 
f 17/1/6 18/2/6 14/2/6 
f 13/2/7 15/1/7 19/1/7 
f 19/1/7 17/2/7 13/2/7 
f 15/2/6 16/1/6 20/1/6 
f 20/1/6 19/2/6 15/2/6 
f 16/2/7 14/1/7 18/1/7 
f 18/1/7 20/2/7 16/2/7 
f 18/2/5 17/1/5 21/1/5 
f 21/1/5 22/2/5 18/2/5 
f 17/2/4 19/1/4 23/1/4 
f 23/1/4 21/2/4 17/2/4 
f 19/2/3 20/1/3 24/1/3 
f 24/1/3 23/2/3 19/2/3 
f 20/2/2 18/1/2 22/1/2 
f 22/1/2 24/2/2 20/2/2 
f 23/1/7 24/1/7 22/1/7 
f 22/1/7 21/1/7 23/1/7 
# 44 faces

